ply
format ascii 1.0
comment created by boidsTransformer
element vertex 441
property float64 x
property float64 y
property float64 z
property float64 vx
property float64 vy
property float64 vz
property float64 s
element face 400
property list uint8 int32 vertex_indices
end_header
10	10	0.000000	0.000000	0.000000	0.000000	872.77704
9	10	0.000000	0.000000	0.000000	0.000000	2823.6167
8	10	0.000000	0.000000	0.000000	0.000000	4092.473
7	10	0.000000	0.000000	0.000000	0.000000	4612.084
6	10	0.000000	0.000000	0.000000	0.000000	3545.4822
5	10	0.000000	0.000000	0.000000	0.000000	1138.2944
4	10	0.000000	0.000000	0.000000	0.000000	43.45146
3	10	0.000000	0.000000	0.000000	0.000000	61.610798
2	10	0.000000	0.000000	0.000000	0.000000	63.002747
1	10	0.000000	0.000000	0.000000	0.000000	249.7928
0	10	0.000000	0.000000	0.000000	0.000000	853.3515
-1	10	0.000000	0.000000	0.000000	0.000000	1045.1941
-2	10	0.000000	0.000000	0.000000	0.000000	577.8968
-3	10	0.000000	0.000000	0.000000	0.000000	353.91953
-4	10	0.000000	0.000000	0.000000	0.000000	214.34746
-5	10	0.000000	0.000000	0.000000	0.000000	70.93046
-6	10	0.000000	0.000000	0.000000	0.000000	181.60068
-7	10	0.000000	0.000000	0.000000	0.000000	218.02
-8	10	0.000000	0.000000	0.000000	0.000000	161.13512
-9	10	0.000000	0.000000	0.000000	0.000000	262.70514
-10	10	0.000000	0.000000	0.000000	0.000000	155.17442
10	9	0.000000	0.000000	0.000000	0.000000	3127.2856
9	9	0.000000	0.000000	0.000000	0.000000	6684.139
8	9	0.000000	0.000000	0.000000	0.000000	6736.551
7	9	0.000000	0.000000	0.000000	0.000000	7173.944
6	9	0.000000	0.000000	0.000000	0.000000	7122.995
5	9	0.000000	0.000000	0.000000	0.000000	3744.931
4	9	0.000000	0.000000	0.000000	0.000000	526.15186
3	9	0.000000	0.000000	0.000000	0.000000	210.14604
2	9	0.000000	0.000000	0.000000	0.000000	314.43164
1	9	0.000000	0.000000	0.000000	0.000000	425.1625
0	9	0.000000	0.000000	0.000000	0.000000	1146.8259
-1	9	0.000000	0.000000	0.000000	0.000000	1883.4358
-2	9	0.000000	0.000000	0.000000	0.000000	1593.9008
-3	9	0.000000	0.000000	0.000000	0.000000	1077.2465
-4	9	0.000000	0.000000	0.000000	0.000000	580.5407
-5	9	0.000000	0.000000	0.000000	0.000000	133.75476
-6	9	0.000000	0.000000	0.000000	0.000000	246.03677
-7	9	0.000000	0.000000	0.000000	0.000000	455.1462
-8	9	0.000000	0.000000	0.000000	0.000000	598.55664
-9	9	0.000000	0.000000	0.000000	0.000000	730.5422
-10	9	0.000000	0.000000	0.000000	0.000000	332.69916
10	8	0.000000	0.000000	0.000000	0.000000	4745.0283
9	8	0.000000	0.000000	0.000000	0.000000	7188.0337
8	8	0.000000	0.000000	0.000000	0.000000	4111.6934
7	8	0.000000	0.000000	0.000000	0.000000	3736.9983
6	8	0.000000	0.000000	0.000000	0.000000	5882.962
5	8	0.000000	0.000000	0.000000	0.000000	5118.4155
4	8	0.000000	0.000000	0.000000	0.000000	1298.7878
3	8	0.000000	0.000000	0.000000	0.000000	330.75732
2	8	0.000000	0.000000	0.000000	0.000000	353.92432
1	8	0.000000	0.000000	0.000000	0.000000	321.6817
0	8	0.000000	0.000000	0.000000	0.000000	471.93713
-1	8	0.000000	0.000000	0.000000	0.000000	1125.149
-2	8	0.000000	0.000000	0.000000	0.000000	1736.2661
-3	8	0.000000	0.000000	0.000000	0.000000	1789.0118
-4	8	0.000000	0.000000	0.000000	0.000000	1204.1396
-5	8	0.000000	0.000000	0.000000	0.000000	428.2966
-6	8	0.000000	0.000000	0.000000	0.000000	364.01508
-7	8	0.000000	0.000000	0.000000	0.000000	703.2556
-8	8	0.000000	0.000000	0.000000	0.000000	1110.1843
-9	8	0.000000	0.000000	0.000000	0.000000	1118.9425
-10	8	0.000000	0.000000	0.000000	0.000000	469.27097
10	7	0.000000	0.000000	0.000000	0.000000	5434.563
9	7	0.000000	0.000000	0.000000	0.000000	7391.664
8	7	0.000000	0.000000	0.000000	0.000000	2993.7246
7	7	0.000000	0.000000	0.000000	0.000000	3138.4038
6	7	0.000000	0.000000	0.000000	0.000000	5737.6763
5	7	0.000000	0.000000	0.000000	0.000000	4888.347
4	7	0.000000	0.000000	0.000000	0.000000	1340.8469
3	7	0.000000	0.000000	0.000000	0.000000	237.10931
2	7	0.000000	0.000000	0.000000	0.000000	176.88658
1	7	0.000000	0.000000	0.000000	0.000000	194.41444
0	7	0.000000	0.000000	0.000000	0.000000	263.3535
-1	7	0.000000	0.000000	0.000000	0.000000	409.14084
-2	7	0.000000	0.000000	0.000000	0.000000	753.4733
-3	7	0.000000	0.000000	0.000000	0.000000	1203.1763
-4	7	0.000000	0.000000	0.000000	0.000000	1545.0795
-5	7	0.000000	0.000000	0.000000	0.000000	1252.6298
-6	7	0.000000	0.000000	0.000000	0.000000	1025.7845
-7	7	0.000000	0.000000	0.000000	0.000000	1191.4607
-8	7	0.000000	0.000000	0.000000	0.000000	1195.2125
-9	7	0.000000	0.000000	0.000000	0.000000	848.45764
-10	7	0.000000	0.000000	0.000000	0.000000	333.93973
10	6	0.000000	0.000000	0.000000	0.000000	4824.281
9	6	0.000000	0.000000	0.000000	0.000000	8971.128
8	6	0.000000	0.000000	0.000000	0.000000	7266.3433
7	6	0.000000	0.000000	0.000000	0.000000	6896.3525
6	6	0.000000	0.000000	0.000000	0.000000	6264.3267
5	6	0.000000	0.000000	0.000000	0.000000	3215.706
4	6	0.000000	0.000000	0.000000	0.000000	643.1791
3	6	0.000000	0.000000	0.000000	0.000000	93.77799
2	6	0.000000	0.000000	0.000000	0.000000	119.239105
1	6	0.000000	0.000000	0.000000	0.000000	67.98776
0	6	0.000000	0.000000	0.000000	0.000000	179.6522
-1	6	0.000000	0.000000	0.000000	0.000000	233.15385
-2	6	0.000000	0.000000	0.000000	0.000000	288.65686
-3	6	0.000000	0.000000	0.000000	0.000000	605.69855
-4	6	0.000000	0.000000	0.000000	0.000000	1307.5028
-5	6	0.000000	0.000000	0.000000	0.000000	1706.0779
-6	6	0.000000	0.000000	0.000000	0.000000	1807.0372
-7	6	0.000000	0.000000	0.000000	0.000000	1968.6753
-8	6	0.000000	0.000000	0.000000	0.000000	1290.6389
-9	6	0.000000	0.000000	0.000000	0.000000	616.7606
-10	6	0.000000	0.000000	0.000000	0.000000	276.30173
10	5	0.000000	0.000000	0.000000	0.000000	1841.1866
9	5	0.000000	0.000000	0.000000	0.000000	5674.036
8	5	0.000000	0.000000	0.000000	0.000000	7803.938
7	5	0.000000	0.000000	0.000000	0.000000	6905.008
6	5	0.000000	0.000000	0.000000	0.000000	3614.61
5	5	0.000000	0.000000	0.000000	0.000000	1048.5957
4	5	0.000000	0.000000	0.000000	0.000000	239.81961
3	5	0.000000	0.000000	0.000000	0.000000	109.13365
2	5	0.000000	0.000000	0.000000	0.000000	144.09668
1	5	0.000000	0.000000	0.000000	0.000000	106.36687
0	5	0.000000	0.000000	0.000000	0.000000	405.1407
-1	5	0.000000	0.000000	0.000000	0.000000	559.70013
-2	5	0.000000	0.000000	0.000000	0.000000	501.9704
-3	5	0.000000	0.000000	0.000000	0.000000	557.7615
-4	5	0.000000	0.000000	0.000000	0.000000	683.4455
-5	5	0.000000	0.000000	0.000000	0.000000	937.5416
-6	5	0.000000	0.000000	0.000000	0.000000	1440.6536
-7	5	0.000000	0.000000	0.000000	0.000000	1987.8451
-8	5	0.000000	0.000000	0.000000	0.000000	1792.9584
-9	5	0.000000	0.000000	0.000000	0.000000	1320.3776
-10	5	0.000000	0.000000	0.000000	0.000000	604.36444
10	4	0.000000	0.000000	0.000000	0.000000	107.394264
9	4	0.000000	0.000000	0.000000	0.000000	873.1109
8	4	0.000000	0.000000	0.000000	0.000000	2061.3003
7	4	0.000000	0.000000	0.000000	0.000000	2301.198
6	4	0.000000	0.000000	0.000000	0.000000	1155.152
5	4	0.000000	0.000000	0.000000	0.000000	448.60086
4	4	0.000000	0.000000	0.000000	0.000000	384.24268
3	4	0.000000	0.000000	0.000000	0.000000	321.09924
2	4	0.000000	0.000000	0.000000	0.000000	499.14087
1	4	0.000000	0.000000	0.000000	0.000000	518.5295
0	4	0.000000	0.000000	0.000000	0.000000	645.7747
-1	4	0.000000	0.000000	0.000000	0.000000	764.8093
-2	4	0.000000	0.000000	0.000000	0.000000	586.337
-3	4	0.000000	0.000000	0.000000	0.000000	372.61182
-4	4	0.000000	0.000000	0.000000	0.000000	234.76942
-5	4	0.000000	0.000000	0.000000	0.000000	489.70847
-6	4	0.000000	0.000000	0.000000	0.000000	841.866
-7	4	0.000000	0.000000	0.000000	0.000000	974.93964
-8	4	0.000000	0.000000	0.000000	0.000000	1467.5375
-9	4	0.000000	0.000000	0.000000	0.000000	2216.7026
-10	4	0.000000	0.000000	0.000000	0.000000	1258.3745
10	3	0.000000	0.000000	0.000000	0.000000	44.66672
9	3	0.000000	0.000000	0.000000	0.000000	101.06247
8	3	0.000000	0.000000	0.000000	0.000000	357.1441
7	3	0.000000	0.000000	0.000000	0.000000	1023.59644
6	3	0.000000	0.000000	0.000000	0.000000	1318.8265
5	3	0.000000	0.000000	0.000000	0.000000	1534.9822
4	3	0.000000	0.000000	0.000000	0.000000	1852.646
3	3	0.000000	0.000000	0.000000	0.000000	1556.871
2	3	0.000000	0.000000	0.000000	0.000000	1082.6997
1	3	0.000000	0.000000	0.000000	0.000000	924.8638
0	3	0.000000	0.000000	0.000000	0.000000	1176.9391
-1	3	0.000000	0.000000	0.000000	0.000000	1416.2198
-2	3	0.000000	0.000000	0.000000	0.000000	1393.4421
-3	3	0.000000	0.000000	0.000000	0.000000	1201.3456
-4	3	0.000000	0.000000	0.000000	0.000000	1026.2778
-5	3	0.000000	0.000000	0.000000	0.000000	1496.9463
-6	3	0.000000	0.000000	0.000000	0.000000	1601.3677
-7	3	0.000000	0.000000	0.000000	0.000000	1297.5841
-8	3	0.000000	0.000000	0.000000	0.000000	1537.7098
-9	3	0.000000	0.000000	0.000000	0.000000	2483.5352
-10	3	0.000000	0.000000	0.000000	0.000000	1636.78
10	2	0.000000	0.000000	0.000000	0.000000	66.02658
9	2	0.000000	0.000000	0.000000	0.000000	191.58128
8	2	0.000000	0.000000	0.000000	0.000000	735.38916
7	2	0.000000	0.000000	0.000000	0.000000	1945.6356
6	2	0.000000	0.000000	0.000000	0.000000	2786.7412
5	2	0.000000	0.000000	0.000000	0.000000	3407.96
4	2	0.000000	0.000000	0.000000	0.000000	3582.8098
3	2	0.000000	0.000000	0.000000	0.000000	3048.162
2	2	0.000000	0.000000	0.000000	0.000000	2625.7317
1	2	0.000000	0.000000	0.000000	0.000000	2765.9326
0	2	0.000000	0.000000	0.000000	0.000000	3022.773
-1	2	0.000000	0.000000	0.000000	0.000000	2656.8552
-2	2	0.000000	0.000000	0.000000	0.000000	2334.4612
-3	2	0.000000	0.000000	0.000000	0.000000	2293.533
-4	2	0.000000	0.000000	0.000000	0.000000	2502.869
-5	2	0.000000	0.000000	0.000000	0.000000	2578.043
-6	2	0.000000	0.000000	0.000000	0.000000	2036.8113
-7	2	0.000000	0.000000	0.000000	0.000000	1990.2694
-8	2	0.000000	0.000000	0.000000	0.000000	2521.7498
-9	2	0.000000	0.000000	0.000000	0.000000	2917.5076
-10	2	0.000000	0.000000	0.000000	0.000000	1555.6935
10	1	0.000000	0.000000	0.000000	0.000000	305.12277
9	1	0.000000	0.000000	0.000000	0.000000	1230.9469
8	1	0.000000	0.000000	0.000000	0.000000	2942.2485
7	1	0.000000	0.000000	0.000000	0.000000	4177.7505
6	1	0.000000	0.000000	0.000000	0.000000	3521.0671
5	1	0.000000	0.000000	0.000000	0.000000	2656.2825
4	1	0.000000	0.000000	0.000000	0.000000	2261.7593
3	1	0.000000	0.000000	0.000000	0.000000	2826.7268
2	1	0.000000	0.000000	0.000000	0.000000	4926.3926
1	1	0.000000	0.000000	0.000000	0.000000	8761.866
0	1	0.000000	0.000000	0.000000	0.000000	7855.929
-1	1	0.000000	0.000000	0.000000	0.000000	2661.361
-2	1	0.000000	0.000000	0.000000	0.000000	1393.8749
-3	1	0.000000	0.000000	0.000000	0.000000	1591.8502
-4	1	0.000000	0.000000	0.000000	0.000000	2060.3652
-5	1	0.000000	0.000000	0.000000	0.000000	2026.8145
-6	1	0.000000	0.000000	0.000000	0.000000	1759.875
-7	1	0.000000	0.000000	0.000000	0.000000	1977.6498
-8	1	0.000000	0.000000	0.000000	0.000000	2522.4966
-9	1	0.000000	0.000000	0.000000	0.000000	3284.144
-10	1	0.000000	0.000000	0.000000	0.000000	1777.9434
10	0	0.000000	0.000000	0.000000	0.000000	353.97986
9	0	0.000000	0.000000	0.000000	0.000000	1213.8981
8	0	0.000000	0.000000	0.000000	0.000000	2465.6702
7	0	0.000000	0.000000	0.000000	0.000000	2832.7136
6	0	0.000000	0.000000	0.000000	0.000000	1655.7561
5	0	0.000000	0.000000	0.000000	0.000000	1049.5347
4	0	0.000000	0.000000	0.000000	0.000000	2679.8645
3	0	0.000000	0.000000	0.000000	0.000000	7379.3584
2	0	0.000000	0.000000	0.000000	0.000000	12960.007
1	0	0.000000	0.000000	0.000000	0.000000	19058.395
0	0	0.000000	0.000000	0.000000	0.000000	13513.258
-1	0	0.000000	0.000000	0.000000	0.000000	1429.1199
-2	0	0.000000	0.000000	0.000000	0.000000	270.96323
-3	0	0.000000	0.000000	0.000000	0.000000	530.3422
-4	0	0.000000	0.000000	0.000000	0.000000	821.17694
-5	0	0.000000	0.000000	0.000000	0.000000	767.3334
-6	0	0.000000	0.000000	0.000000	0.000000	909.78186
-7	0	0.000000	0.000000	0.000000	0.000000	1229.71
-8	0	0.000000	0.000000	0.000000	0.000000	1422.3414
-9	0	0.000000	0.000000	0.000000	0.000000	2199.9353
-10	0	0.000000	0.000000	0.000000	0.000000	1360.1503
10	-1	0.000000	0.000000	0.000000	0.000000	116.86749
9	-1	0.000000	0.000000	0.000000	0.000000	170.94865
8	-1	0.000000	0.000000	0.000000	0.000000	167.01598
7	-1	0.000000	0.000000	0.000000	0.000000	100.0373
6	-1	0.000000	0.000000	0.000000	0.000000	135.1701
5	-1	0.000000	0.000000	0.000000	0.000000	562.27515
4	-1	0.000000	0.000000	0.000000	0.000000	1898.0931
3	-1	0.000000	0.000000	0.000000	0.000000	5057.7637
2	-1	0.000000	0.000000	0.000000	0.000000	8312.877
1	-1	0.000000	0.000000	0.000000	0.000000	9848.67
0	-1	0.000000	0.000000	0.000000	0.000000	5489.136
-1	-1	0.000000	0.000000	0.000000	0.000000	345.3594
-2	-1	0.000000	0.000000	0.000000	0.000000	190.08456
-3	-1	0.000000	0.000000	0.000000	0.000000	429.85928
-4	-1	0.000000	0.000000	0.000000	0.000000	375.78653
-5	-1	0.000000	0.000000	0.000000	0.000000	66.8578
-6	-1	0.000000	0.000000	0.000000	0.000000	192.54149
-7	-1	0.000000	0.000000	0.000000	0.000000	437.71353
-8	-1	0.000000	0.000000	0.000000	0.000000	721.0256
-9	-1	0.000000	0.000000	0.000000	0.000000	1119.0656
-10	-1	0.000000	0.000000	0.000000	0.000000	616.1492
10	-2	0.000000	0.000000	0.000000	0.000000	62.933258
9	-2	0.000000	0.000000	0.000000	0.000000	142.1711
8	-2	0.000000	0.000000	0.000000	0.000000	178.14122
7	-2	0.000000	0.000000	0.000000	0.000000	137.78305
6	-2	0.000000	0.000000	0.000000	0.000000	227.9218
5	-2	0.000000	0.000000	0.000000	0.000000	271.992
4	-2	0.000000	0.000000	0.000000	0.000000	139.4962
3	-2	0.000000	0.000000	0.000000	0.000000	364.87097
2	-2	0.000000	0.000000	0.000000	0.000000	1085.3162
1	-2	0.000000	0.000000	0.000000	0.000000	1306.5646
0	-2	0.000000	0.000000	0.000000	0.000000	747.5551
-1	-2	0.000000	0.000000	0.000000	0.000000	447.37442
-2	-2	0.000000	0.000000	0.000000	0.000000	502.41415
-3	-2	0.000000	0.000000	0.000000	0.000000	662.6005
-4	-2	0.000000	0.000000	0.000000	0.000000	345.8554
-5	-2	0.000000	0.000000	0.000000	0.000000	63.790863
-6	-2	0.000000	0.000000	0.000000	0.000000	208.4917
-7	-2	0.000000	0.000000	0.000000	0.000000	411.1709
-8	-2	0.000000	0.000000	0.000000	0.000000	661.3292
-9	-2	0.000000	0.000000	0.000000	0.000000	779.84375
-10	-2	0.000000	0.000000	0.000000	0.000000	381.01724
10	-3	0.000000	0.000000	0.000000	0.000000	181.65642
9	-3	0.000000	0.000000	0.000000	0.000000	295.20953
8	-3	0.000000	0.000000	0.000000	0.000000	139.49745
7	-3	0.000000	0.000000	0.000000	0.000000	70.50697
6	-3	0.000000	0.000000	0.000000	0.000000	318.6095
5	-3	0.000000	0.000000	0.000000	0.000000	353.65408
4	-3	0.000000	0.000000	0.000000	0.000000	94.907135
3	-3	0.000000	0.000000	0.000000	0.000000	132.54956
2	-3	0.000000	0.000000	0.000000	0.000000	548.46423
1	-3	0.000000	0.000000	0.000000	0.000000	723.97723
0	-3	0.000000	0.000000	0.000000	0.000000	595.2689
-1	-3	0.000000	0.000000	0.000000	0.000000	695.2183
-2	-3	0.000000	0.000000	0.000000	0.000000	1021.3286
-3	-3	0.000000	0.000000	0.000000	0.000000	1165.9292
-4	-3	0.000000	0.000000	0.000000	0.000000	639.63586
-5	-3	0.000000	0.000000	0.000000	0.000000	181.19672
-6	-3	0.000000	0.000000	0.000000	0.000000	122.92084
-7	-3	0.000000	0.000000	0.000000	0.000000	407.0046
-8	-3	0.000000	0.000000	0.000000	0.000000	738.1489
-9	-3	0.000000	0.000000	0.000000	0.000000	557.0658
-10	-3	0.000000	0.000000	0.000000	0.000000	188.75175
10	-4	0.000000	0.000000	0.000000	0.000000	265.9074
9	-4	0.000000	0.000000	0.000000	0.000000	456.90775
8	-4	0.000000	0.000000	0.000000	0.000000	238.99149
7	-4	0.000000	0.000000	0.000000	0.000000	78.6124
6	-4	0.000000	0.000000	0.000000	0.000000	336.0353
5	-4	0.000000	0.000000	0.000000	0.000000	414.58975
4	-4	0.000000	0.000000	0.000000	0.000000	159.80988
3	-4	0.000000	0.000000	0.000000	0.000000	168.37332
2	-4	0.000000	0.000000	0.000000	0.000000	373.16977
1	-4	0.000000	0.000000	0.000000	0.000000	344.0595
0	-4	0.000000	0.000000	0.000000	0.000000	235.66525
-1	-4	0.000000	0.000000	0.000000	0.000000	594.0714
-2	-4	0.000000	0.000000	0.000000	0.000000	1099.3612
-3	-4	0.000000	0.000000	0.000000	0.000000	1265.0067
-4	-4	0.000000	0.000000	0.000000	0.000000	1120.5457
-5	-4	0.000000	0.000000	0.000000	0.000000	652.0498
-6	-4	0.000000	0.000000	0.000000	0.000000	372.87213
-7	-4	0.000000	0.000000	0.000000	0.000000	524.00446
-8	-4	0.000000	0.000000	0.000000	0.000000	683.09106
-9	-4	0.000000	0.000000	0.000000	0.000000	433.08313
-10	-4	0.000000	0.000000	0.000000	0.000000	78.12293
10	-5	0.000000	0.000000	0.000000	0.000000	188.67375
9	-5	0.000000	0.000000	0.000000	0.000000	414.2735
8	-5	0.000000	0.000000	0.000000	0.000000	360.60443
7	-5	0.000000	0.000000	0.000000	0.000000	210.87483
6	-5	0.000000	0.000000	0.000000	0.000000	421.4775
5	-5	0.000000	0.000000	0.000000	0.000000	366.0904
4	-5	0.000000	0.000000	0.000000	0.000000	77.06605
3	-5	0.000000	0.000000	0.000000	0.000000	205.26555
2	-5	0.000000	0.000000	0.000000	0.000000	321.7775
1	-5	0.000000	0.000000	0.000000	0.000000	234.66713
0	-5	0.000000	0.000000	0.000000	0.000000	239.41298
-1	-5	0.000000	0.000000	0.000000	0.000000	603.0224
-2	-5	0.000000	0.000000	0.000000	0.000000	641.66095
-3	-5	0.000000	0.000000	0.000000	0.000000	496.50156
-4	-5	0.000000	0.000000	0.000000	0.000000	830.01385
-5	-5	0.000000	0.000000	0.000000	0.000000	1029.9509
-6	-5	0.000000	0.000000	0.000000	0.000000	801.334
-7	-5	0.000000	0.000000	0.000000	0.000000	672.45734
-8	-5	0.000000	0.000000	0.000000	0.000000	911.2692
-9	-5	0.000000	0.000000	0.000000	0.000000	557.18286
-10	-5	0.000000	0.000000	0.000000	0.000000	68.334755
10	-6	0.000000	0.000000	0.000000	0.000000	102.028946
9	-6	0.000000	0.000000	0.000000	0.000000	237.44647
8	-6	0.000000	0.000000	0.000000	0.000000	272.7993
7	-6	0.000000	0.000000	0.000000	0.000000	307.83627
6	-6	0.000000	0.000000	0.000000	0.000000	591.9337
5	-6	0.000000	0.000000	0.000000	0.000000	443.3671
4	-6	0.000000	0.000000	0.000000	0.000000	87.72891
3	-6	0.000000	0.000000	0.000000	0.000000	147.25116
2	-6	0.000000	0.000000	0.000000	0.000000	202.1475
1	-6	0.000000	0.000000	0.000000	0.000000	180.88254
0	-6	0.000000	0.000000	0.000000	0.000000	464.11533
-1	-6	0.000000	0.000000	0.000000	0.000000	650.18036
-2	-6	0.000000	0.000000	0.000000	0.000000	311.3786
-3	-6	0.000000	0.000000	0.000000	0.000000	123.45277
-4	-6	0.000000	0.000000	0.000000	0.000000	401.44974
-5	-6	0.000000	0.000000	0.000000	0.000000	821.61584
-6	-6	0.000000	0.000000	0.000000	0.000000	759.8069
-7	-6	0.000000	0.000000	0.000000	0.000000	782.2917
-8	-6	0.000000	0.000000	0.000000	0.000000	1090.5958
-9	-6	0.000000	0.000000	0.000000	0.000000	752.3529
-10	-6	0.000000	0.000000	0.000000	0.000000	178.87569
10	-7	0.000000	0.000000	0.000000	0.000000	83.71379
9	-7	0.000000	0.000000	0.000000	0.000000	193.10097
8	-7	0.000000	0.000000	0.000000	0.000000	123.11115
7	-7	0.000000	0.000000	0.000000	0.000000	250.38364
6	-7	0.000000	0.000000	0.000000	0.000000	680.6176
5	-7	0.000000	0.000000	0.000000	0.000000	688.2583
4	-7	0.000000	0.000000	0.000000	0.000000	403.83618
3	-7	0.000000	0.000000	0.000000	0.000000	300.92752
2	-7	0.000000	0.000000	0.000000	0.000000	217.1011
1	-7	0.000000	0.000000	0.000000	0.000000	325.48483
0	-7	0.000000	0.000000	0.000000	0.000000	625.0289
-1	-7	0.000000	0.000000	0.000000	0.000000	450.837
-2	-7	0.000000	0.000000	0.000000	0.000000	305.0959
-3	-7	0.000000	0.000000	0.000000	0.000000	395.59024
-4	-7	0.000000	0.000000	0.000000	0.000000	494.88297
-5	-7	0.000000	0.000000	0.000000	0.000000	508.29776
-6	-7	0.000000	0.000000	0.000000	0.000000	432.4019
-7	-7	0.000000	0.000000	0.000000	0.000000	520.26105
-8	-7	0.000000	0.000000	0.000000	0.000000	547.22015
-9	-7	0.000000	0.000000	0.000000	0.000000	581.7778
-10	-7	0.000000	0.000000	0.000000	0.000000	295.23508
10	-8	0.000000	0.000000	0.000000	0.000000	72.65818
9	-8	0.000000	0.000000	0.000000	0.000000	150.85522
8	-8	0.000000	0.000000	0.000000	0.000000	165.91519
7	-8	0.000000	0.000000	0.000000	0.000000	254.0149
6	-8	0.000000	0.000000	0.000000	0.000000	485.2593
5	-8	0.000000	0.000000	0.000000	0.000000	641.7193
4	-8	0.000000	0.000000	0.000000	0.000000	607.864
3	-8	0.000000	0.000000	0.000000	0.000000	486.93546
2	-8	0.000000	0.000000	0.000000	0.000000	347.30716
1	-8	0.000000	0.000000	0.000000	0.000000	466.73297
0	-8	0.000000	0.000000	0.000000	0.000000	505.43445
-1	-8	0.000000	0.000000	0.000000	0.000000	211.5635
-2	-8	0.000000	0.000000	0.000000	0.000000	264.6176
-3	-8	0.000000	0.000000	0.000000	0.000000	467.4199
-4	-8	0.000000	0.000000	0.000000	0.000000	434.05307
-5	-8	0.000000	0.000000	0.000000	0.000000	251.24303
-6	-8	0.000000	0.000000	0.000000	0.000000	200.0329
-7	-8	0.000000	0.000000	0.000000	0.000000	156.74052
-8	-8	0.000000	0.000000	0.000000	0.000000	125.74797
-9	-8	0.000000	0.000000	0.000000	0.000000	305.19745
-10	-8	0.000000	0.000000	0.000000	0.000000	229.65195
10	-9	0.000000	0.000000	0.000000	0.000000	86.222534
9	-9	0.000000	0.000000	0.000000	0.000000	114.68932
8	-9	0.000000	0.000000	0.000000	0.000000	167.16478
7	-9	0.000000	0.000000	0.000000	0.000000	449.76358
6	-9	0.000000	0.000000	0.000000	0.000000	558.1096
5	-9	0.000000	0.000000	0.000000	0.000000	331.5227
4	-9	0.000000	0.000000	0.000000	0.000000	276.15848
3	-9	0.000000	0.000000	0.000000	0.000000	349.2785
2	-9	0.000000	0.000000	0.000000	0.000000	541.98145
1	-9	0.000000	0.000000	0.000000	0.000000	741.3013
0	-9	0.000000	0.000000	0.000000	0.000000	432.0062
-1	-9	0.000000	0.000000	0.000000	0.000000	97.336494
-2	-9	0.000000	0.000000	0.000000	0.000000	101.33821
-3	-9	0.000000	0.000000	0.000000	0.000000	206.193
-4	-9	0.000000	0.000000	0.000000	0.000000	276.0438
-5	-9	0.000000	0.000000	0.000000	0.000000	277.26355
-6	-9	0.000000	0.000000	0.000000	0.000000	185.5134
-7	-9	0.000000	0.000000	0.000000	0.000000	171.7011
-8	-9	0.000000	0.000000	0.000000	0.000000	366.95624
-9	-9	0.000000	0.000000	0.000000	0.000000	532.3156
-10	-9	0.000000	0.000000	0.000000	0.000000	299.05484
10	-10	0.000000	0.000000	0.000000	0.000000	50.421978
9	-10	0.000000	0.000000	0.000000	0.000000	63.22129
8	-10	0.000000	0.000000	0.000000	0.000000	48.65021
7	-10	0.000000	0.000000	0.000000	0.000000	270.93692
6	-10	0.000000	0.000000	0.000000	0.000000	366.06543
5	-10	0.000000	0.000000	0.000000	0.000000	114.96169
4	-10	0.000000	0.000000	0.000000	0.000000	23.848616
3	-10	0.000000	0.000000	0.000000	0.000000	115.880615
2	-10	0.000000	0.000000	0.000000	0.000000	347.24292
1	-10	0.000000	0.000000	0.000000	0.000000	460.22137
0	-10	0.000000	0.000000	0.000000	0.000000	209.45534
-1	-10	0.000000	0.000000	0.000000	0.000000	26.968191
-2	-10	0.000000	0.000000	0.000000	0.000000	36.960693
-3	-10	0.000000	0.000000	0.000000	0.000000	76.52669
-4	-10	0.000000	0.000000	0.000000	0.000000	130.0069
-5	-10	0.000000	0.000000	0.000000	0.000000	184.3269
-6	-10	0.000000	0.000000	0.000000	0.000000	104.67878
-7	-10	0.000000	0.000000	0.000000	0.000000	135.82529
-8	-10	0.000000	0.000000	0.000000	0.000000	340.55414
-9	-10	0.000000	0.000000	0.000000	0.000000	415.0572
-10	-10	0.000000	0.000000	0.000000	0.000000	195.50385
4 0 1 22 21
4 1 2 23 22
4 2 3 24 23
4 3 4 25 24
4 4 5 26 25
4 5 6 27 26
4 6 7 28 27
4 7 8 29 28
4 8 9 30 29
4 9 10 31 30
4 10 11 32 31
4 11 12 33 32
4 12 13 34 33
4 13 14 35 34
4 14 15 36 35
4 15 16 37 36
4 16 17 38 37
4 17 18 39 38
4 18 19 40 39
4 19 20 41 40
4 21 22 43 42
4 22 23 44 43
4 23 24 45 44
4 24 25 46 45
4 25 26 47 46
4 26 27 48 47
4 27 28 49 48
4 28 29 50 49
4 29 30 51 50
4 30 31 52 51
4 31 32 53 52
4 32 33 54 53
4 33 34 55 54
4 34 35 56 55
4 35 36 57 56
4 36 37 58 57
4 37 38 59 58
4 38 39 60 59
4 39 40 61 60
4 40 41 62 61
4 42 43 64 63
4 43 44 65 64
4 44 45 66 65
4 45 46 67 66
4 46 47 68 67
4 47 48 69 68
4 48 49 70 69
4 49 50 71 70
4 50 51 72 71
4 51 52 73 72
4 52 53 74 73
4 53 54 75 74
4 54 55 76 75
4 55 56 77 76
4 56 57 78 77
4 57 58 79 78
4 58 59 80 79
4 59 60 81 80
4 60 61 82 81
4 61 62 83 82
4 63 64 85 84
4 64 65 86 85
4 65 66 87 86
4 66 67 88 87
4 67 68 89 88
4 68 69 90 89
4 69 70 91 90
4 70 71 92 91
4 71 72 93 92
4 72 73 94 93
4 73 74 95 94
4 74 75 96 95
4 75 76 97 96
4 76 77 98 97
4 77 78 99 98
4 78 79 100 99
4 79 80 101 100
4 80 81 102 101
4 81 82 103 102
4 82 83 104 103
4 84 85 106 105
4 85 86 107 106
4 86 87 108 107
4 87 88 109 108
4 88 89 110 109
4 89 90 111 110
4 90 91 112 111
4 91 92 113 112
4 92 93 114 113
4 93 94 115 114
4 94 95 116 115
4 95 96 117 116
4 96 97 118 117
4 97 98 119 118
4 98 99 120 119
4 99 100 121 120
4 100 101 122 121
4 101 102 123 122
4 102 103 124 123
4 103 104 125 124
4 105 106 127 126
4 106 107 128 127
4 107 108 129 128
4 108 109 130 129
4 109 110 131 130
4 110 111 132 131
4 111 112 133 132
4 112 113 134 133
4 113 114 135 134
4 114 115 136 135
4 115 116 137 136
4 116 117 138 137
4 117 118 139 138
4 118 119 140 139
4 119 120 141 140
4 120 121 142 141
4 121 122 143 142
4 122 123 144 143
4 123 124 145 144
4 124 125 146 145
4 126 127 148 147
4 127 128 149 148
4 128 129 150 149
4 129 130 151 150
4 130 131 152 151
4 131 132 153 152
4 132 133 154 153
4 133 134 155 154
4 134 135 156 155
4 135 136 157 156
4 136 137 158 157
4 137 138 159 158
4 138 139 160 159
4 139 140 161 160
4 140 141 162 161
4 141 142 163 162
4 142 143 164 163
4 143 144 165 164
4 144 145 166 165
4 145 146 167 166
4 147 148 169 168
4 148 149 170 169
4 149 150 171 170
4 150 151 172 171
4 151 152 173 172
4 152 153 174 173
4 153 154 175 174
4 154 155 176 175
4 155 156 177 176
4 156 157 178 177
4 157 158 179 178
4 158 159 180 179
4 159 160 181 180
4 160 161 182 181
4 161 162 183 182
4 162 163 184 183
4 163 164 185 184
4 164 165 186 185
4 165 166 187 186
4 166 167 188 187
4 168 169 190 189
4 169 170 191 190
4 170 171 192 191
4 171 172 193 192
4 172 173 194 193
4 173 174 195 194
4 174 175 196 195
4 175 176 197 196
4 176 177 198 197
4 177 178 199 198
4 178 179 200 199
4 179 180 201 200
4 180 181 202 201
4 181 182 203 202
4 182 183 204 203
4 183 184 205 204
4 184 185 206 205
4 185 186 207 206
4 186 187 208 207
4 187 188 209 208
4 189 190 211 210
4 190 191 212 211
4 191 192 213 212
4 192 193 214 213
4 193 194 215 214
4 194 195 216 215
4 195 196 217 216
4 196 197 218 217
4 197 198 219 218
4 198 199 220 219
4 199 200 221 220
4 200 201 222 221
4 201 202 223 222
4 202 203 224 223
4 203 204 225 224
4 204 205 226 225
4 205 206 227 226
4 206 207 228 227
4 207 208 229 228
4 208 209 230 229
4 210 211 232 231
4 211 212 233 232
4 212 213 234 233
4 213 214 235 234
4 214 215 236 235
4 215 216 237 236
4 216 217 238 237
4 217 218 239 238
4 218 219 240 239
4 219 220 241 240
4 220 221 242 241
4 221 222 243 242
4 222 223 244 243
4 223 224 245 244
4 224 225 246 245
4 225 226 247 246
4 226 227 248 247
4 227 228 249 248
4 228 229 250 249
4 229 230 251 250
4 231 232 253 252
4 232 233 254 253
4 233 234 255 254
4 234 235 256 255
4 235 236 257 256
4 236 237 258 257
4 237 238 259 258
4 238 239 260 259
4 239 240 261 260
4 240 241 262 261
4 241 242 263 262
4 242 243 264 263
4 243 244 265 264
4 244 245 266 265
4 245 246 267 266
4 246 247 268 267
4 247 248 269 268
4 248 249 270 269
4 249 250 271 270
4 250 251 272 271
4 252 253 274 273
4 253 254 275 274
4 254 255 276 275
4 255 256 277 276
4 256 257 278 277
4 257 258 279 278
4 258 259 280 279
4 259 260 281 280
4 260 261 282 281
4 261 262 283 282
4 262 263 284 283
4 263 264 285 284
4 264 265 286 285
4 265 266 287 286
4 266 267 288 287
4 267 268 289 288
4 268 269 290 289
4 269 270 291 290
4 270 271 292 291
4 271 272 293 292
4 273 274 295 294
4 274 275 296 295
4 275 276 297 296
4 276 277 298 297
4 277 278 299 298
4 278 279 300 299
4 279 280 301 300
4 280 281 302 301
4 281 282 303 302
4 282 283 304 303
4 283 284 305 304
4 284 285 306 305
4 285 286 307 306
4 286 287 308 307
4 287 288 309 308
4 288 289 310 309
4 289 290 311 310
4 290 291 312 311
4 291 292 313 312
4 292 293 314 313
4 294 295 316 315
4 295 296 317 316
4 296 297 318 317
4 297 298 319 318
4 298 299 320 319
4 299 300 321 320
4 300 301 322 321
4 301 302 323 322
4 302 303 324 323
4 303 304 325 324
4 304 305 326 325
4 305 306 327 326
4 306 307 328 327
4 307 308 329 328
4 308 309 330 329
4 309 310 331 330
4 310 311 332 331
4 311 312 333 332
4 312 313 334 333
4 313 314 335 334
4 315 316 337 336
4 316 317 338 337
4 317 318 339 338
4 318 319 340 339
4 319 320 341 340
4 320 321 342 341
4 321 322 343 342
4 322 323 344 343
4 323 324 345 344
4 324 325 346 345
4 325 326 347 346
4 326 327 348 347
4 327 328 349 348
4 328 329 350 349
4 329 330 351 350
4 330 331 352 351
4 331 332 353 352
4 332 333 354 353
4 333 334 355 354
4 334 335 356 355
4 336 337 358 357
4 337 338 359 358
4 338 339 360 359
4 339 340 361 360
4 340 341 362 361
4 341 342 363 362
4 342 343 364 363
4 343 344 365 364
4 344 345 366 365
4 345 346 367 366
4 346 347 368 367
4 347 348 369 368
4 348 349 370 369
4 349 350 371 370
4 350 351 372 371
4 351 352 373 372
4 352 353 374 373
4 353 354 375 374
4 354 355 376 375
4 355 356 377 376
4 357 358 379 378
4 358 359 380 379
4 359 360 381 380
4 360 361 382 381
4 361 362 383 382
4 362 363 384 383
4 363 364 385 384
4 364 365 386 385
4 365 366 387 386
4 366 367 388 387
4 367 368 389 388
4 368 369 390 389
4 369 370 391 390
4 370 371 392 391
4 371 372 393 392
4 372 373 394 393
4 373 374 395 394
4 374 375 396 395
4 375 376 397 396
4 376 377 398 397
4 378 379 400 399
4 379 380 401 400
4 380 381 402 401
4 381 382 403 402
4 382 383 404 403
4 383 384 405 404
4 384 385 406 405
4 385 386 407 406
4 386 387 408 407
4 387 388 409 408
4 388 389 410 409
4 389 390 411 410
4 390 391 412 411
4 391 392 413 412
4 392 393 414 413
4 393 394 415 414
4 394 395 416 415
4 395 396 417 416
4 396 397 418 417
4 397 398 419 418
4 399 400 421 420
4 400 401 422 421
4 401 402 423 422
4 402 403 424 423
4 403 404 425 424
4 404 405 426 425
4 405 406 427 426
4 406 407 428 427
4 407 408 429 428
4 408 409 430 429
4 409 410 431 430
4 410 411 432 431
4 411 412 433 432
4 412 413 434 433
4 413 414 435 434
4 414 415 436 435
4 415 416 437 436
4 416 417 438 437
4 417 418 439 438
4 418 419 440 439
